<svg version="1.2" xmlns="http://www.w3.org/2000/svg" viewBox="0 0 2720 1722" width="2720" height="1722">
	<title>server-hub-logo2</title>
	<style>
		.s0 { opacity: .92;fill: #93cbe9 } 
		.s1 { opacity: 1;fill: #05438a } 
		.s2 { opacity: 1;fill: #0681cd } 
		.s3 { fill: #88c0e1 } 
	</style>
	<g id="Background">
		<g id="Path 5">
			<path id="Path 0" class="s0" d="m1986 544.7c3.6 0.2 9.7 0.2 13.5 0 3.8-0.2 0.9-0.3-6.5-0.3-7.4 0-10.6 0.1-7 0.3zm-111.5 6.3c-2.7 0.7-2.6 0.8 1.5 0.8 2.5 0.1 6.3-0.3 8.5-0.7 4-0.9 4-0.9-1.5-0.9-3 0-6.8 0.4-8.5 0.8zm556.6 208.7c-0.1 2.4 0.3 4.5 0.9 4.8 0.6 0.3 1-0.7 0.9-2.3 0-1.5-0.4-3.6-0.9-4.7-0.7-1.5-0.9-1-0.9 2.2zm41.2 7.8c0 3.8 0.2 5.2 0.4 3 0.2-2.2 0.2-5.4 0-7-0.2-1.7-0.4 0.1-0.4 4zm-266.3 11.5c0 0.6 2.3 0.8 6.2 0.4 3.5-0.4 6.5-0.8 6.7-1 0.2-0.2-2.6-0.4-6.2-0.4-3.8 0-6.7 0.4-6.7 1zm91.5 48.7c1.7 0.2 4.8 0.2 7 0 2.2-0.2 0.8-0.4-3-0.4-3.8 0-5.7 0.2-4 0.4zm-2004.3 83.8c0 2.7 0.4 8.1 0.8 12l0.7 7c0.1-15.5-0.2-20.9-0.7-22-0.6-1.5-0.8-0.6-0.8 3zm0 25c-0.1 2.2 0.2 4.7 0.7 5.5 0.7 1.2 1 1 1.6-1 0.3-1.4 0.4-2.7 0-3-0.3-0.3-0.6 0.4-0.7 1.5 0 1.1-0.4 0-0.8-2.5l-0.7-4.5zm1815.2 31.5c0 4.7 0.2 6.5 0.4 4 0.2-2.5 0.2-6.3 0-8.5-0.2-2.2-0.4-0.2-0.4 4.5zm-193.4 114.1c-11.2 0.4-34.4 1.7-51.5 2.9-17 1.2-48.7 3.9-70.5 6-21.7 2.2-44.4 4.6-50.5 5.4-6 0.9-18.6 2.5-28 3.7-9.3 1.1-22.1 2.9-28.5 3.9-6.3 1-16.6 2.6-23 3.5-6.3 0.9-21.1 3.2-33 5.1-11.8 1.9-25.7 4.1-31 5-5.2 0.8-14.4 2.4-20.5 3.4-6 1.1-16.1 2.9-22.5 4-6.3 1.1-25.4 4.3-42.5 7-17 2.8-37.8 6.3-46.1 7.8l-15.1 2.7c3.4 4.3 5.6 5.7 7.5 6 1.9 0.3 3.7 1.3 4.2 2.5 0.6 1.1 1 5.3 1.1 9.2 0 6.8-0.2 7.5-3 10.3-1.7 1.7-3.2 4.1-3.3 5.5-0.2 1.6-1.1 2.6-2.8 3.1-1.5 0.4-1.8 0.7-0.7 0.8 0.9 0.1 17.6-2.6 37-5.9 19.4-3.3 46.9-8 61.2-10.5 14.3-2.5 35.3-6.1 46.5-8 11.3-1.9 38.3-6.2 60-9.5 21.8-3.2 52.1-7.5 67.5-9.4 15.4-2 38.2-4.7 50.5-6 12.4-1.4 32.4-3.4 44.5-4.5 12.1-1.1 34-2.8 48.5-3.8 21.3-1.4 41.9-1.7 103.5-1.8 54.3 0 81.9 0.4 93.5 1.3 9.1 0.7 23.7 1.9 32.5 2.7 8.8 0.8 26 2.7 38.3 4.2 16.7 2.1 22.7 2.5 24 1.7 1-0.6 2-3 2.4-5.5 0.4-2.4 0.7-10 0.7-16.9 0.1-6.9-0.2-13-0.6-13.6-0.4-0.6-2.3-1.6-4.3-2.2-1.9-0.6-8.2-1.8-14-2.6-5.7-0.8-14.7-2-20-2.6-5.2-0.5-18.7-1.7-30-2.5-11.2-0.9-32.6-2-47.5-2.5-14.8-0.5-46.5-0.9-70.5-0.8-23.9 0.1-52.7 0.5-64 0.9zm-1073 94.9c0 0.5 0.8 0.9 1.8 0.9 0.9-0.1 3.1-0.5 4.7-0.9 2.7-0.7 2.5-0.8-1.7-0.9-2.6 0-4.8 0.4-4.8 0.9zm10 1c-1 0.8 0.5 0.9 5 0.4 3.6-0.4 6.7-0.8 7-1 0.2-0.2-2.1-0.4-5-0.4-3 0-6.1 0.5-7 1zm14 1c-1.3 0.4 2.3 0.5 8 0.2 5.8-0.2 10.7-0.6 11-0.8 0.2-0.2-3.4-0.4-8-0.3-4.7 0.1-9.6 0.4-11 0.9zm274.5-0.3c1.7 0.2 4.8 0.2 7 0 2.2-0.2 0.9-0.4-3-0.4-3.8 0-5.6 0.2-4 0.4zm-245.5 1c3.1 0.2 7.6 0.2 10 0 2.5-0.2 0-0.3-5.5-0.3-5.5 0-7.5 0.1-4.5 0.3zm222 0c3.1 0.2 8.2 0.2 11.5 0 3.3-0.2 0.9-0.3-5.5-0.3-6.3 0-9 0.1-6 0.3zm-198 1c2.5 0.2 6.8 0.2 9.5 0 2.8-0.2 0.8-0.3-4.5-0.3-5.2 0-7.4 0.1-5 0.3zm174 0c2.5 0.2 6.8 0.2 9.5 0 2.8-0.2 0.8-0.3-4.5-0.3-5.2 0-7.4 0.1-5 0.3zm-152 1c3.1 0.2 7.6 0.2 10 0 2.5-0.2 0-0.3-5.5-0.3-5.5 0-7.5 0.1-4.5 0.3zm124.6 0.3c-0.3 0.5 0.4 1.2 1.7 1.5 1.2 0.3 3.2 0.5 4.5 0.5 1.2 0 2.2-0.5 2.2-1 0-0.5 2.4-1.1 5.3-1.3 3-0.2 1.2-0.4-4-0.5-5.3-0.1-9.4 0.2-9.7 0.8zm-97.3 0.6c0.9 0.2 1.7 0.9 1.7 1.4 0 0.6 3.7 1 9.3 0.9 6.9-0.1 8.5-0.4 6.2-1-1.9-0.5-0.5-0.6 4-0.2 3.9 0.3 8.4 0.5 10 0.4 1.7 0 15-0.5 29.5-0.9l26.5-0.8c-68.9-0.1-88.2 0-87.2 0.2zm-22.3 2.1c4.7 0.2 11.9 0.2 16 0 4.2-0.1 0.3-0.3-8.5-0.3-8.8 0-12.1 0.2-7.5 0.3zm94 1c4.7 0.2 11.9 0.2 16 0 4.2-0.1 0.3-0.3-8.5-0.3-8.8 0-12.1 0.2-7.5 0.3zm286.6 12.3c-0.3 0.5 0.4 1 1.7 0.9 1.2-0.1 3.4-0.5 4.7-0.9 2.2-0.7 1.9-0.8-1.7-0.9-2.3-0.1-4.4 0.4-4.7 0.9zm-34.6 4.2c-3.5 0.5-6.2 1.1-6 1.4 0.3 0.2 4 0.1 8.2-0.3 4.2-0.5 7.5-1.1 7.3-1.6-0.3-0.4-1-0.6-1.7-0.6-0.7 0.1-4.2 0.6-7.8 1.1zm-462.5 10.8c-2.6 0.7-2.5 0.8 1.8 0.9 2.6 0 5-0.4 5.2-0.9 0.3-0.5-0.5-0.9-1.7-0.9-1.3 0.1-3.6 0.5-5.3 0.9zm11.5 1c-3.4 0.7-3.4 0.7 1 0.8 2.5 0 5.4-0.3 6.5-0.8 1.7-0.7 1.6-0.8-1-0.8-1.6 0-4.5 0.4-6.5 0.8zm11.5 1l-3 0.8c5.5 0 8.4-0.4 10-0.8l3-0.8c-5.4 0-8.3 0.4-10 0.8zm12 1l-5 0.7c10.1 0.2 13.7-0.2 14.5-0.7 1.2-0.7 0.8-0.9-1.5-0.8-1.6 0.1-5.2 0.4-8 0.8zm15 1l-5 0.7c8.6 0.1 12.2-0.3 13.5-0.7 2.5-0.8 2.4-0.8-0.5-0.7-1.6 0-5.2 0.3-8 0.7zm255.5 0c-1.9 0.6-1.4 0.8 2.5 0.8 2.8 0 7.5-0.3 10.5-0.8 5.4-0.7 5.4-0.7-2.5-0.8-4.4 0-9.1 0.4-10.5 0.8zm-240.5 1l-5 0.7c7.8 0 11.4-0.3 13-0.7l3-0.8c-4.6 0.1-8.2 0.4-11 0.8zm222 0c-2.1 0.5-0.9 0.8 4.5 0.8 5.4 0 6.7-0.3 4.5-0.8-1.6-0.4-3.6-0.8-4.5-0.8-0.8 0-2.8 0.4-4.5 0.8zm-206.5 1l-6.5 0.7c13.2 0.1 19.7-0.3 23-0.7l6-0.7c-12.4 0-18.9 0.3-22.5 0.7zm178.5 0c1.1 0.5 3.8 0.9 6 0.9 2.2 0 4.9-0.4 6-0.9q2-0.9-6-0.9-8 0-6 0.9zm-152 1c-5.6 0.5-4.4 0.7 6.5 0.7 9.6 0.1 12.4-0.2 9.5-0.8-2.2-0.4-5.1-0.7-6.5-0.7-1.3 0.1-5.6 0.4-9.5 0.8zm130.5 0c2.5 0.5 7.7 0.9 11.5 1 3.9 0 6.8-0.1 6.5-0.3-0.2-0.2-5.4-0.7-11.5-0.9-7-0.4-9.3-0.3-6.5 0.2zm-102.7 1.1c0.4 0.5 11.6 0.9 25 0.8 13.3 0 23.8-0.2 23.2-0.4-0.5-0.2-11.8-0.5-24.9-0.8-13.9-0.3-23.7-0.1-23.3 0.4zm66.2 0.6c7.2 0.2 18.4 0.2 25 0 6.6-0.1 0.8-0.3-13-0.3-13.7 0-19.1 0.2-12 0.3z"/>
			<path id="Path 1" fill-rule="evenodd" class="s1" d="m2132.9 690c19.3 0 25.9 0.3 26.9 1.2 1 1 1.2 12.5 1.2 52.8 0 40 0.2 51.9 1.2 53.2 1.2 1.6 2 1.3 9.8-3.9 4.7-3 11.4-6.9 15-8.5 4.2-2 9.9-3.5 16-4.4 5.2-0.7 12-1.3 15-1.3 3 0 8.7 0.6 12.5 1.3 3.8 0.8 9.2 2.2 12 3.3 2.7 1 7.9 3.7 11.5 5.8 3.6 2.2 11 8.4 16.6 14 5.5 5.5 12.1 13.1 14.5 17 2.8 4.4 6 11.6 8.7 19.5 2.2 6.9 5.1 17.9 6.3 24.5 1.7 9.7 2 14.4 1.6 24.5-0.3 8.2-1.2 15.3-2.6 20.5-1.2 4.4-3.7 11.4-5.4 15.5-1.8 4.1-5.1 10.2-7.2 13.5-2.2 3.3-8.5 10.5-14 16-7.1 7.1-12.3 11.3-18 14.5-4.4 2.5-12.5 6.1-28 11.5h-19.5c-17.8 0-20.1-0.2-26.5-2.4-3.8-1.2-8.8-3.2-11-4.3-2.2-1.2-6.4-3.6-14.5-8.8v10.5l-6.7 0.7c-3.8 0.5-13.9 0.8-22.6 0.8-15.4 0-15.7 0-16.3-2.2-0.4-1.3-0.8-13.5-0.9-27.3-0.2-13.7-0.8-52.5-1.3-86-0.6-33.5-1.2-85.6-1.3-115.6-0.1-30 0.1-54.9 0.6-55.2 0.5-0.4 12.3-0.7 26.4-0.7zm50.1 140.3c-2.4 1.2-4.6 2.7-4.7 3.4-0.3 0.8 0.7 0.9 3.4 0.2 2.1-0.4 7-0.9 10.8-1 3.8 0 10.2-0.5 14-1 4.5-0.5 8.3-0.5 10.5 0.2 3.2 0.9 3.4 0.9 2-0.6-0.8-0.9-4.2-2.5-7.5-3.5-3.3-1-7.6-2.1-9.5-2.4-1.9-0.3-6 0.1-9 1-3 0.8-7.5 2.5-10 3.7zm-18 66.9c0 0.7 0.7 4.3 1.5 8 1 4.4 2.9 8.8 5.2 12.5 2.1 3.1 5.6 6.9 7.8 8.4 2.2 1.5 6 3.5 8.5 4.3 3.1 1.1 7.8 1.6 15 1.6 9.8-0.1 10.9-0.3 17-3.3 3.5-1.7 8.6-5.3 11.2-8 2.7-2.6 6.1-7.5 7.7-11 1.7-3.4 3.3-7.8 3.6-9.7l0.7-3.5c-7.5-1.2-11-1.4-12.7-1.3-1.7 0.2-17.1 0.4-34.3 0.5-24.2 0.2-31.2 0.6-31.2 1.5zm-1718.8-93.1c33.9-0.1 34.8 0 35.8 1.9 0.7 1.4 0.5 7.8-0.4 20.2-0.8 10.1-1.9 18.6-2.3 18.9-0.4 0.4-17.5 0.9-37.8 1.2-31.5 0.5-38.3 0.8-46 2.5-5 1.1-12.4 3.5-16.5 5.4-4.1 1.9-10.2 5.7-13.5 8.3-3.3 2.7-8.6 7.8-11.8 11.4-3.2 3.6-7.4 9.7-9.2 13.6-1.9 3.8-4.3 10.6-5.5 15-1.1 4.4-2.3 11.4-2.6 15.5-0.4 4.1-0.1 10.9 0.5 15 0.6 4.1 2.5 11.8 4.1 17 1.6 5.2 5 13.5 7.6 18.5 2.5 5 7 12.6 9.8 17 2.9 4.4 8.6 12 12.8 17 4.1 5 11.5 13 16.4 17.9 4.9 4.9 13.4 12.6 18.9 17.1 5.5 4.5 14.7 11.5 20.5 15.5 5.8 4 17.5 11.3 26 16.2 8.5 4.9 24 13.2 34.5 18.3 10.4 5.1 28 12.9 39 17.3 11 4.4 28.1 10.8 38 14.1 9.9 3.4 27.9 9.2 40 12.8 12.1 3.6 29.4 8.5 38.5 10.8 9.1 2.3 29.8 7.1 46 10.5 16.2 3.4 29.9 6.6 30.5 7 0.5 0.5 7.5 2 15.5 3.4 8 1.4 26 4.1 40 6 14 2 37.6 4.9 52.5 6.5 14.8 1.6 32.2 3.4 38.5 4 6.3 0.6 26.8 2 45.5 3.1 27.1 1.6 48.5 2 177.5 2.5l-0.5 31.9-4.5 0.9c-2.5 0.5-33.3 1-68.5 1.1-35.2 0-72.3-0.3-82.5-0.7-10.2-0.5-28.4-1.5-40.5-2.3-12.1-0.8-33.7-2.3-48-3.4-14.3-1.2-26.7-2.3-27.5-2.6-0.8-0.3-7.4-0.7-14.5-0.9-7.2-0.2-18.9-1.1-26-2-7.2-0.9-21.3-2.9-31.5-4.5-10.2-1.6-23.7-3.8-30-5-6.3-1.1-18.9-3.4-28-5.1-9.1-1.7-26.2-5.3-38-8-11.8-2.8-28.3-6.8-36.5-9-8.3-2.3-24.5-7-36-10.6-11.6-3.5-30.5-10-42-14.3-11.6-4.3-27.5-10.6-35.5-14-8-3.4-21.3-9.4-29.5-13.4-8.3-4-21.8-11-30-15.5-8.3-4.6-22-13-30.5-18.6-8.5-5.7-20.5-14.4-26.5-19.2-6.1-4.8-16.3-13.9-22.9-20.3-6.5-6.3-15.5-15.8-20.1-21-4.6-5.2-12.2-15.4-17-22.5-4.8-7.2-10.9-17.5-13.6-23-3.6-7.2-6.1-14.5-9-26-3.8-14.7-4.2-17.3-4.6-32.5-0.5-15.2-0.3-17.4 2.1-28 1.4-6.3 2.6-12.3 2.6-13.3 0-0.9 1.6-5.2 3.6-9.5 1.9-4.2 6.1-11.5 9.2-16.2 3.1-4.7 8.8-11.8 12.7-15.9 3.8-4 10.6-10 15-13.3 4.4-3.3 12.5-8.2 18-10.8 5.5-2.6 12.9-5.7 16.5-6.8 3.6-1.1 9.9-2.8 14-3.7 4.1-0.8 10.9-1.9 15-2.4 4.1-0.5 23.1-0.9 42.2-1z"/>
			<path id="Path 2" class="s2" d="m1944.5 546.1c-9.3 0.5-23.8 1.1-32 1.3-8.9 0.3-17.2 1.2-20.5 2.1-3 0.8-10.1 1.9-15.8 2.3l-10.2 0.7c0.2 25.6 0.5 34.1 0.9 35.5 0.7 2.4 1.1 2.5 6.7 2.2 3.2-0.2 14.4-1.2 24.9-2.2 10.5-1 29.3-2.4 42-3.1 14.4-0.7 38.5-1 64.5-0.6 25.8 0.3 48.1 1.1 59 2.1 9.6 0.9 23.8 2.3 31.5 3.2 7.7 0.8 23 2.9 34 4.5 11 1.7 26.1 4.2 33.5 5.5 7.4 1.4 19.3 3.8 26.5 5.5 7.2 1.6 20 4.8 28.5 7 8.5 2.2 21.6 5.9 29 8.1 7.4 2.2 20 6.5 28 9.5 8 3 18.8 7.3 24 9.5 5.2 2.2 17.4 7.9 27 12.7 9.6 4.8 22 11.5 27.5 15 5.5 3.4 13.5 8.8 17.9 11.9 4.3 3.2 12.4 9.6 18 14.3 5.5 4.8 13.3 12.3 17.1 16.9 3.8 4.5 8.3 10.1 9.8 12.4 1.5 2.2 4.1 6.6 5.6 9.6 1.6 3 4.7 10.5 7 16.5 3.6 9.4 4.2 11.9 3.8 17-0.2 3.3-1.3 9.6-2.6 14-1.2 4.4-3.4 10.5-4.8 13.5-1.6 3.4-5.4 8.2-9.7 12.5-4.4 4.3-9.8 8.4-14.1 10.7-3.8 2-10.6 4.6-15 5.8-4.4 1.1-13.6 2.5-20.5 3-6.9 0.5-26.7 1.4-44 2-17.3 0.7-31.6 1.3-31.8 1.3-0.2 0.1 1.5 5.6 3.7 12.2 2.2 6.6 4.9 16.7 6 22.5 1 5.8 2 9 2 7.2l0.1-3.2c56.4-0.6 75.8-1.3 80-2 4.1-0.6 10.9-2 15-3.1 4.1-1.1 9.9-2.9 12.8-4 2.8-1 8.2-3.4 11.9-5.3 3.8-1.8 10.2-6 14.3-9.3 4.1-3.3 10-8.6 13-11.9 3-3.2 7.6-9.3 10.2-13.4 2.6-4.1 6-10.9 7.7-15 2.1-5.2 3.4-10.8 4.2-18 0.7-6.2 0.9-16.6 0.6-25.5-0.4-10.9-1.1-17-2.7-22.5-1.2-4.1-4.5-12.5-7.5-18.5-2.9-6-7.6-14.1-10.3-18-2.7-3.9-8.6-11.3-12.9-16.5-4.4-5.2-12-13.2-16.9-17.7-4.9-4.5-12.5-11-16.9-14.4-4.4-3.4-11.8-8.7-16.5-11.8-4.7-3.2-14.3-9.1-21.5-13.1-7.2-4-18.6-10.1-25.5-13.6-6.9-3.5-22.2-10.1-34-14.7-11.8-4.7-26.9-10.3-33.5-12.5-6.6-2.2-19.2-6.1-28-8.7-8.8-2.6-19.6-5.5-24-6.6-4.4-1.1-12.9-3-19-4.3-6.1-1.4-19.6-4-30-6-10.4-1.9-26.9-4.6-36.5-6-9.6-1.4-23.6-3.2-31-4.1-7.4-0.8-18.2-1.7-24-2.1-5.8-0.3-14.1-0.7-18.5-0.9-4.4-0.1-11.6-0.7-16-1.3-4.7-0.6-23.9-1-46.5-1-21.2 0.1-46.2 0.5-55.5 0.9zm-511.5 603.5c-4.7 0.7-27.4 4-50.5 7.3-23.1 3.3-56.8 7.8-75 10-18.2 2.2-44.9 5.2-59.5 6.5-14.6 1.4-34.2 3.2-43.5 4.1-9.3 0.8-24 1.9-32.5 2.5-8.5 0.5-23.2 1.4-32.5 2-9.3 0.5-23.5 1.2-31.5 1.5-8 0.4-15.5 0.8-16.8 1.1-2.2 0.4-2.2 0.6-2.2 16.6v16.3c19.1 1.4 23.9 1.3 27 0.5 2.5-0.6 17.1-1.6 32.5-2 15.4-0.5 39-1.8 52.5-3 13.5-1.1 31.3-2.7 39.5-3.5 8.2-0.8 21.3-2.2 29-3.1 7.7-0.9 14.7-2 15.5-2.4 0.8-0.5 10-2.1 20.5-3.6 10.5-1.4 23.3-2.9 28.5-3.3 5.2-0.3 10-0.9 10.5-1.3 0.5-0.4 5.5-1.4 11-2.2 5.5-0.8 14.5-1.8 20-2.1 5.5-0.4 12.2-1.1 15-1.6 2.7-0.6 5.5-1.3 6-1.6 0.5-0.4 3.5-1 6.5-1.4 3-0.5 9.5-1.7 14.5-2.7 5-1.1 15.1-3 22.5-4.2l13.5-2.2 11.5-9.8c0-12-0.4-16-0.8-16.6-0.4-0.6-1.7-1.6-3-2.3-1.2-0.6-6.1-1.1-11-1-4.8 0.1-12.5 0.7-17.2 1.5z"/>
			<path id="Path 3" class="s3" d="m293.5 928.5c0.3 6 0.9 12.4 1.4 14 0.7 2.3 0.8 1.4 0.4-3.5-0.3-3.6-0.9-9.9-1.4-14-0.7-6.7-0.7-6.3-0.4 3.5zm1814.9 7c0 5.5 0.1 7.5 0.3 4.5 0.2-3 0.2-7.5 0-10-0.2-2.5-0.3 0-0.3 5.5zm-663.9 208.7c-3.3 0.5-13.9 2.2-23.5 3.8-9.6 1.6-30.1 4.7-45.5 6.9-15.4 2.2-35.9 4.9-45.5 6.1-9.6 1.2-28.3 3.5-41.5 5.1-13.2 1.6-31.2 3.6-40 4.4-8.8 0.8-23 2.2-31.5 3-8.5 0.8-28.3 2.4-44 3.5-15.7 1.1-39.8 2.4-53.5 3-13.8 0.5-29.6 1.2-35.3 1.5-7.2 0.3-10.2 0.9-10.2 1.8 0 0.9-1 1-4.2 0.3-2.4-0.4-16.9-0.7-32.3-0.6-15.4 0.1-29.8 0.6-32 1-2.2 0.5 15.5 0.8 40 0.8 24.2-0.1 47.4-0.4 51.5-0.9 4.1-0.4 18.3-1.3 31.5-1.9 13.2-0.6 27.4-1.3 31.5-1.6 4.1-0.2 10.6-0.6 14.5-0.9 3.8-0.2 12.2-0.9 18.5-1.5 6.3-0.6 15.8-1.5 21-2 5.2-0.5 10.2-0.8 11-0.7 0.8 0 4-0.2 7-0.6 3-0.3 10-1.1 15.5-1.6 5.5-0.6 14.7-1.5 20.5-2.1 5.8-0.6 25.1-2.9 43-5.1 17.9-2.2 40.8-5.1 51-6.5 10.2-1.4 20.3-2.7 22.5-2.9 2.2-0.3 6.4-0.9 9.2-1.5 2.9-0.5 5.6-0.9 6-0.8 0.5 0.1 3-0.2 5.8-0.6 2.7-0.4 6.1-1 7.5-1.2 1.4-0.2 4.3-0.6 6.5-0.9 2.2-0.3 5.1-0.8 6.5-1 1.4-0.3 3.8-0.8 5.5-1.1 1.6-0.3 7.8-0.9 13.8-1.2l10.7-0.7c-2.3-3.5-3.6-4.4-4.3-4.4-0.6 0.1-3.9 0.6-7.2 1.1zm10.8 32.2c-1.9 1.4-6.6 2.8-14.5 4.1-6.4 1.1-11.6 2.1-11.5 2.3 0.1 0.2 6.5-0.6 14.2-1.8 7.7-1.1 14.4-2.4 14.8-2.8 0.5-0.4 0.6-1.4 0.3-2.3-0.4-1.4-0.8-1.3-3.3 0.5zm-578.3 3.6c4.7 0.5 12.3 1.2 17 1.5 4.7 0.4 10.7 0.8 13.5 0.9 2.7 0.2 17.4 0.6 32.5 1 15.1 0.4 28.1 0.9 28.7 1.2 0.7 0.2 1.3-0.1 1.3-0.6 0-0.5-1-1.2-2.3-1.5-1.2-0.3-7.4-0.5-13.7-0.5-6.3 0-19.2-0.4-28.5-0.9-9.4-0.5-26-1.2-37-1.5-14.6-0.3-17.7-0.2-11.5 0.4zm108.5 4c1.6 0.4 5 0.8 7.5 0.8 4 0 4.2-0.1 1.5-0.8-1.7-0.4-5-0.8-7.5-0.8-4 0-4.2 0.1-1.5 0.8zm-97.5 33.1c-1.5 0.4 0.2 0.7 4.5 0.7 3.8 0 6.5-0.1 6-0.3-0.6-0.2-2.6-0.5-4.5-0.7-1.9-0.2-4.6-0.1-6 0.3zm239-0.1l-4.5 0.7c7.7 0.1 11.1-0.3 12.5-0.7 2.4-0.8 2.4-0.8-0.5-0.8-1.7 0.1-5 0.4-7.5 0.8zm-224.5 1.1c-1.7 0.4 0.6 0.7 5.5 0.7 4.7 0 7.8-0.2 7-0.4-0.8-0.1-3.3-0.4-5.5-0.6-2.2-0.2-5.4 0-7 0.3zm25 1c-5 0.5-4.1 0.6 5 0.8 6 0.1 10.8 0 10.5-0.2-0.3-0.3-2.5-0.6-5-0.8-2.5-0.2-7.2-0.1-10.5 0.2zm95 0.9c-27.7 0.3-39.7 0.7-28.5 0.9 10.7 0.1 31.2 0.2 45.5 0.1 14.3-0.1 31.6-0.6 38.5-1 12.5-0.7 12.5-0.7 2.5-0.6-5.5 0-31.6 0.3-58 0.6z"/>
			<path id="Path 4" class="s0" d="m2033.3 782.8c-1 0.9-1.4 3.6-1.4 8.5 0 4.7 0.4 6.8 1 6.2 0.6-0.5 1.1-4.1 1.3-8l0.3-7c34.1 0.5 45 0.3 46.2-0.2 1.3-0.5-7.7-0.8-21.9-0.8-18.7 0-24.5 0.3-25.5 1.3zm50.4-0.4c-0.4 0.3-0.3 3.8 0.3 7.8 0.6 4.2 1.1 32.4 1.3 66.5 0.1 32.5 0.6 59.5 1.1 60 0.5 0.4 0.5-27.4 0.1-64.7-0.4-36-1.1-66.5-1.4-67.8-0.4-1.3-1-2.1-1.4-1.8zm-563.5 2.9c1.3 0.9 1.7 3.2 2 9.7l0.4 8.5c0.4-14.3 0-17.4-0.8-18.3-0.7-0.7-1.8-1.2-2.3-1.2-0.5 0-0.2 0.6 0.7 1.3zm-98.1 1.2c-0.8 1-0.8 2.3-0.1 4.3 1 2.6 1 2.6 0.5-0.5-0.4-2.8-0.2-3.2 1.3-2.7 1.4 0.5 1.5 0.4 0.2-0.5-1.1-0.8 5.5-1 24.8-0.9 14.4 0.2 26.2 0 26.2-0.4 0-0.5-11.6-0.8-25.9-0.8-21.8 0-26 0.2-27 1.5zm-320.1 0.2c5.8 0.2 15.7 0.2 22 0 6.3-0.1 1.6-0.3-10.5-0.3-12.1 0-17.3 0.2-11.5 0.3zm383.4 6.2c-2.7 2.1-6.5 5.6-8.4 7.7-2.1 2.4-1.2 1.7 2.5-1.6 3.3-3.1 7.3-6.5 9-7.7 1.7-1.3 2.7-2.3 2.4-2.3-0.4 0-2.9 1.7-5.5 3.9zm51.2 12.4c-0.3 0.7-0.4 9.8-0.2 20.2l0.1 19 0.5-39.5 21.5-0.6c-18.8-0.3-21.7-0.1-21.9 0.9zm73.4-0.7c1.4 0.2 4.8 0.5 7.7 0.6 2.8 0.2 4.9 0 4.7-0.4-0.2-0.5-3.7-0.7-7.6-0.7-4 0.1-6.2 0.3-4.8 0.5zm13.2 14.4c-0.1 5.8-0.5 15.5-0.8 21.5-0.5 8.1-0.4 10.7 0.5 10 0.8-0.7 1-7.3 0.8-21.5-0.1-11.3-0.3-15.8-0.5-10zm408.3 35c0 23.4 0.1 32.8 0.2 21 0.2-11.8 0.2-30.9 0-42.5-0.1-11.5-0.2-1.9-0.2 21.5zm1.9-28c0 7.4 0.1 10.4 0.3 6.5 0.2-3.8 0.2-9.9 0-13.5-0.2-3.6-0.3-0.4-0.3 7zm0 35.5c0 11.6 0.2 16.1 0.3 10 0.2-6 0.2-15.5 0-21-0.1-5.5-0.3-0.5-0.3 11zm203.6 33.7c3 0.6 5.8 1.6 6.2 2.2 0.5 0.7 0.8 0.4 0.8-0.6 0-1.2-0.8-1.8-2.2-1.8-1.3 0-4.1-0.2-6.3-0.5-2.5-0.2-1.9 0 1.5 0.7zm-1273.6 10.8c-0.3 2.5-0.4 5.2-0.2 6 0.3 0.8 0.8-0.9 1.2-3.8 0.4-2.9 0.5-5.6 0.2-6-0.3-0.4-0.8 1.3-1.2 3.8zm557.1-1.3c10.4 0.2 27.1 0.2 37 0 9.9-0.1 1.3-0.2-19-0.2-20.3 0-28.5 0.1-18 0.2zm78.5 0c4.7 0.2 12.1 0.2 16.5 0 4.4-0.1 0.6-0.3-8.5-0.3-9.1 0-12.7 0.2-8 0.3zm-103.6 18.3c0 6.9 0.1 9.6 0.3 6 0.2-3.6 0.2-9.2 0-12.5-0.2-3.3-0.3-0.4-0.3 6.5zm-32.3 2.5c0.1 1.7 0.5 4.1 0.9 5.5 0.7 2.2 0.8 2 0.9-1.5 0-2.2-0.4-4.7-0.9-5.5-0.7-1.1-0.9-0.8-0.9 1.5zm-1 9c0 1.1 0.4 3.8 0.8 6l0.9 4c0-6.2-0.3-8.9-0.8-10l-0.9-2zm34 10c-0.1 1.7 0.4 3.6 1.1 4.2 0.9 0.9 3.9 1.2 9.3 1l8-0.3-16.5-0.4c-1.7-7.4-1.8-7.4-1.9-4.5zm541.3 23l0.1 9c4.7 0.2 5 0.1 3.8-0.1-2-0.4-2.3-1.1-2.8-7.1-0.3-3.8-0.7-7.7-0.9-8.8-0.2-1.1-0.3 2-0.2 7zm48.8 3.3l-0.2 5.2-10.5 0.6c8.7 0.3 10.7 0 11.1-0.8 0.3-0.7 0.3-3.3 0.1-5.8l-0.3-4.5zm-682.1-0.5c0 2.1 0.3 4.7 0.9 5.8 0.7 1.4 1.9 1.9 4.7 1.9l3.8-0.1c-4.7-1.4-6.4-1.5-6.8-1.3-0.4 0.2-0.9-0.6-1.2-1.8-0.3-1.2-0.6-3.6-0.8-5.2-0.4-2.7-0.4-2.6-0.6 0.7zm645.4 6.8l-5 0.6c7.7 0.2 11.8-0.1 14-0.6l4-0.8c-6.2 0-10.3 0.4-13 0.8zm-621 1.7c5.5 0.2 14 0.2 19 0 4.9-0.2 0.4-0.3-10-0.3-10.5 0-14.5 0.1-9 0.3zm557 2.3c-0.3 0.5 1 0.9 3.2 0.9 2.1-0.1 4.9-0.5 6.3-0.9 1.9-0.7 1.1-0.9-3.2-1-3.1 0-6 0.4-6.3 1z"/>
			<path id="Path 5" fill-rule="evenodd" class="s1" d="m630 656.5c12.5 0.3 19.3 1 28 2.8 6.3 1.4 15.8 3.9 21 5.6 5.2 1.8 12.9 5.1 17 7.3 4.1 2.2 10.4 6 14 8.2 3.6 2.3 10.5 8.3 15.5 13.2 5.6 5.6 10.8 12.1 13.7 17 2.6 4.3 6.3 11.7 8.2 16.4 2.1 5.1 4.3 13.2 5.6 20.3 1.1 6.4 2 15.4 2 20 0 4.5-0.4 10.6-1.5 18.7l-33.5-0.1c-18.4 0-35.7-0.4-43.4-1.4l-1.7-9.5c-1-5.2-2.3-11.1-2.9-13-0.6-1.9-2.2-5.3-3.5-7.5-1.4-2.2-3.3-4.9-4.2-6-1-1.1-4.9-3.7-8.8-5.7-4.2-2.2-10.4-4.3-15.5-5.4-6.1-1.2-11-1.5-17.5-1.1-5 0.3-12.1 1.5-16 2.7-3.9 1.3-8.8 3.5-11 5-2.2 1.4-5 4.2-6.2 6.1-1.2 1.9-3 5.7-6.1 13.4l3.7 7.5c3.6 7.4 3.7 7.5 11.6 11.5 6.3 3.2 13.8 5.5 35 10.8 14.9 3.6 34.4 8.9 43.5 11.7 9.1 2.8 20.3 6.8 25 8.8 4.7 2.1 11.6 5.9 15.5 8.4 3.9 2.6 10.3 7.7 14.4 11.5 4.1 3.7 9.3 9.5 11.6 12.8 2.4 3.3 5.5 8.5 7 11.5 1.5 3 3.6 8 4.7 11 1 3 2.6 10.5 3.4 16.5 1.1 7 1.4 14.1 1.1 19.5-0.3 4.7-1.3 12.1-2.2 16.5-0.9 4.4-3 11.4-4.6 15.5-1.5 4.1-5.2 11.5-8.1 16.4-2.9 4.8-7.9 12-11.1 16-3.2 3.9-9 9.9-13 13.3-3.9 3.4-10.8 8.4-15.2 11-4.4 2.6-11.8 6.2-16.5 8.1-4.7 1.9-13.5 4.7-19.5 6.3-6.4 1.7-16.4 3.3-24 4-7.1 0.6-19.8 0.9-28 0.7-11.5-0.4-17.8-1.1-27-3.2-6.6-1.6-15.8-4.3-20.5-6.1-4.7-1.8-11.6-4.8-15.5-6.7-3.9-2-10.6-6.2-15-9.6-4.4-3.3-10.9-9-14.5-12.8-3.6-3.8-8.4-9.4-10.7-12.4-2.2-3-5.7-8.4-7.7-12-1.9-3.6-4.9-10.1-6.5-14.5-1.6-4.4-3.7-11.8-4.6-16.5-1-4.7-1.8-12.8-1.9-18 0-5.2 0.2-12.9 0.7-17 0.4-4.1 1.4-8.4 2.1-9.5 1.4-1.9 2.7-2 72.6-2.5l1.5 2.3c0.8 1.2 3.1 8.5 5.1 16.2 2 7.7 4.7 16.1 6 18.8 1.3 2.6 4.3 6.8 6.7 9.3 2.3 2.6 6.2 5.8 8.7 7.2 2.5 1.5 7.2 3.5 10.5 4.5 3.3 1 10.6 2.1 16.5 2.4 5.8 0.3 14.1 0 18.5-0.6 5.3-0.7 10.4-2.3 15.3-4.6 3.9-1.9 8.8-5.2 10.8-7.2 2-2.1 4.8-6.3 6.2-9.3 2.1-4.6 2.4-6.4 1.9-11-0.4-3-1.8-7.3-3.1-9.5-1.3-2.2-3.9-5.2-5.7-6.6-1.9-1.4-6.1-4-9.4-5.6-3.3-1.7-9.8-4.3-14.5-5.7-4.7-1.5-15.5-4.5-24-6.6-8.5-2.2-20-5.2-25.5-6.8-5.5-1.6-15.6-5.1-22.5-7.7-6.9-2.6-15-6-18-7.5-3-1.5-7.7-4.2-10.5-5.9-2.7-1.8-7.9-5.7-11.4-8.9-3.6-3.1-8.7-8.8-11.4-12.7-2.7-3.9-6.4-9.7-8.2-13-1.9-3.3-4.6-10.5-6.1-16-2.3-8.7-2.6-12-2.7-25.5-0.1-14.2 0.2-16.3 2.7-24.5 1.5-5 4.4-12.6 6.5-17 2-4.4 5.7-10.9 8.1-14.5 2.4-3.6 8.2-10.3 12.9-15 4.7-4.7 11.5-10.6 15.1-13 3.6-2.4 11-6.5 16.5-9.1 5.6-2.7 15.1-6.1 21.5-7.8 6.3-1.6 14.9-3.4 19-4 4.1-0.5 14.9-0.8 24-0.6zm1047.8 35.6c21-0.1 22.3 0 24.2 1.9 2 2 2 3.3 2 109l51.3 0.3c28.1 0.1 55.5-0.2 60.7-0.6 5.2-0.4 11.4-1 18-1.7v-108h55v283l-53.5-0.5-0.5-121-130 0.5v121h-55l-0.2-139.8c-0.2-81.4 0.1-140.4 0.6-141.4 0.5-0.9 1.8-1.9 3-2.1 1.2-0.2 12.1-0.5 24.4-0.6zm262.2 89.7c10.2 0.2 18.8 0.6 19.3 0.8 0.4 0.2 0.8 16.9 0.8 37.2 0.1 20.2 0.4 48.6 1.4 89.8l3.3 6.7c2.3 4.8 4.4 7.6 7.5 9.7 2.3 1.7 6.5 3.7 9.2 4.4 2.8 0.8 6.7 1.7 8.8 2 2.1 0.3 6.7-0.1 10.5-1 3.7-0.8 8.9-2.7 11.6-4.2 2.7-1.5 7.6-5.4 10.9-8.7 4.3-4.3 6.6-7.6 8.1-11.5 1.9-5.2 2-8.5 3.1-123.5l23.5-0.2c13.7-0.2 24.1 0.1 25 0.7 1.3 0.8 1.6 10 2.3 67.7 0.4 36.7 1 74.7 1.3 84.3 0.3 9.6 0.3 22.6-0.6 40h-46.5l-0.8-6.7c-0.4-3.8-1.1-8.9-2.2-16.1l-9.7 9.4c-7.9 7.6-11.4 10.2-18 13.3-7.9 3.7-8.9 3.9-22.3 4.8-7.7 0.4-16.7 0.7-20 0.7-3.3-0.1-9.6-1.3-14-2.7-4.7-1.5-11.1-4.6-15.5-7.5-4.1-2.7-9.9-7.6-12.8-10.8-2.9-3.3-7-8.8-9-12.4-2-3.6-4.5-8.7-5.5-11.5-1-2.7-2.5-10.2-3.3-16.5-1-8.5-1.4-27.6-1.4-73.5-0.1-49.5 0.2-62.2 1.2-63.2 0.7-0.6 4.5-1.4 8.3-1.6 3.8-0.2 15.3-0.2 25.5 0.1zm-606 2.4c5.8-0.1 13.9 0.5 18 1.2 4.1 0.8 10.4 2.5 14 3.8 3.6 1.4 9 4.1 12 6 3 1.9 8.2 6.4 11.5 9.9 3.3 3.5 7.5 9.3 9.3 12.9 2.3 4.6 3.2 7.9 3.2 11.3 0 2.6 1 7.3 2.3 10.5 1.9 5 2.2 7.4 2.1 19.7 0 10.7-0.6 16.5-2.3 24.5-1.3 5.8-3 12.3-3.8 14.5-0.8 2.2-1.9 4.3-2.6 4.7-0.7 0.4-18.1 0.8-38.7 0.8-20.6 0-44.6 0.3-69 1.5l0.1 6-4.4-4 1.7 3.3c0.9 1.7 2.2 3.5 2.9 4 0.7 0.4 2.1 2.7 3.2 5.1 1.1 2.4 3.5 5.9 5.3 7.7 1.7 1.9 5 4.3 7.2 5.4 2.7 1.4 6 2 10.3 2 3.4 0 7.8-0.4 9.7-1 1.9-0.5 7.8-3.9 13-7.5 5.5-3.8 10.6-6.5 12-6.5 1.4 0 7.9 1.3 14.5 3 6.6 1.7 14.5 4.2 17.5 5.6 3 1.4 6.3 3.3 7.2 4.2 1.6 1.6 1.4 2.1-3.5 9.1-2.9 4.1-8.8 11.1-13.2 15.6-4.4 4.4-10.7 9.7-14 11.6-3.3 2-10 5.2-15 7.2-6.8 2.7-12.3 4-22.5 5.3-11.7 1.6-14.9 1.6-24.2 0.6-6.9-0.8-13.9-2.3-19.5-4.3-4.9-1.7-10.6-4-12.8-5.1-2.2-1.2-7.9-5.9-12.6-10.7-6.6-6.6-9.6-10.5-12.7-16.6-2.2-4.4-5-10.9-6.2-14.5-1.7-5-2.3-9.7-2.7-20.5-0.3-7.9-0.1-18.2 0.6-23.7 0.7-6.3 2.7-14.6 5.5-23 2.3-7.3 6.4-17.6 9.1-22.8 2.6-5.2 6.9-12.4 9.5-16 2.6-3.6 8.7-10.2 13.4-14.7 4.7-4.6 11.2-10 14.4-12 3.1-2 8.1-4.7 11-6 2.8-1.3 9.4-3.4 14.5-4.7 5-1.4 10.3-2.7 11.7-2.9 1.4-0.2 7.2-0.5 13-0.5zm-17.7 49c-1.5 0.9-5.5 4.4-8.8 7.9-3.6 3.8-7.6 9.4-9.8 13.9-2.1 4.1-3.7 8.4-3.7 9.5 0 1.9 0.4 2 15.7 1.3 8.7-0.5 22.2-0.8 30.1-0.8h14.2c0-8.5-0.5-13.4-1.1-16.2-0.9-4.5-2-6.2-7.3-11.4-4.2-4.1-7.2-6.3-9.6-6.7-1.9-0.4-5.3-0.7-7.5-0.6-2.2 0-5.2 0.4-6.7 0.8-1.5 0.5-4 1.5-5.5 2.3zm197.7-48.1c0.8 0 2.6 0.3 6.3 1.4l-0.6 21.5c-0.5 19.4-0.7 21.6-2.4 22.8-1 0.7-3 1.2-4.5 1.2-1.6 0-5.2 0.5-8 1.1-2.9 0.6-6.9 1.9-8.8 2.9-1.9 1-5.9 4.2-8.8 7.1-2.9 3-6.8 8.1-8.7 11.4-1.9 3.3-4.3 8.7-5.5 12-1.1 3.3-2 7.2-2 8.8 0 1.5-0.6 3.9-1.4 5.5-0.7 1.5-2.1 8.1-3 14.7-0.8 6.6-3.1 27.1-5.1 45.5-1.9 18.4-3.5 34.1-3.5 34.8 0 0.9-4.8 1.2-20.7 1.2-11.5 0-22.9-0.3-30.3-1.5v-4.5c0-2.5 0.4-9.2 1-15 0.6-5.8 1.2-13 1.5-16 0.3-3 0.9-9.8 1.5-15 0.5-5.2 1.2-13.1 1.5-17.5 0.4-4.4 0.8-8.2 1-8.5 0.2-0.3 0.6-5 1-10.5 0.4-5.5 0.8-11.3 1-13 0.2-1.6 0.9-8.8 1.5-16 0.6-7.1 1.2-15.2 1.5-18 0.3-2.7 1.1-12.2 1.9-21 0.8-8.8 1.7-19.6 2.1-24 0.6-8 0.6-8 3.8-8.8 1.8-0.4 13.4-0.7 26-0.7 21.2 0 22.7 0.1 22.1 1.8-0.3 0.9-1.1 5.7-1.8 10.5-0.6 4.8-0.9 9-0.6 9.2 0.3 0.2 4.1-3 8.6-7.3 4.9-4.7 10.6-9 14.5-10.9 3.5-1.8 8.9-3.6 11.9-4.1 3-0.5 6.2-1 7-1.1zm-511 0.9c13.5 0 25.2 0.5 26 1 1.3 0.8 1.3 2.4-0.2 14.2-0.9 7.3-1.5 13.5-1.2 13.8 0.4 0.3 2.2-1.5 4.2-4 2-2.5 6.3-7.2 9.6-10.5 4.1-4.1 8.8-7.4 14.6-10.3 7.6-3.9 9.1-4.3 20.5-3.7l1.3 4c0.7 2.2 2.2 9.4 3.2 16 1 6.6 2.2 15.6 2.5 20 0.4 4.4 0.8 8.7 1.1 9.5 0.3 1.3-2.1 1.6-15.4 2.2-14.6 0.7-16.1 1-21.9 3.8-3.5 1.6-8.1 4.9-10.4 7.3-2.2 2.3-5.4 6.9-7 10.2-1.6 3.3-3.8 9.8-4.8 14.5-1.1 4.7-4 23.4-6.5 41.5-2.5 18.2-5.3 39.1-6.1 46.5-0.8 7.4-2 14-2.6 14.5-0.6 0.6-10.9 1.1-25.4 1.3-18.2 0.1-25.1-0.1-26.7-1-2-1.2-2.1-1.8-1.4-8.8 0.4-4.1 1.1-8 1.5-8.5 0.4-0.5 1.3-4.8 2-9.5 0.7-4.7 1.4-12.3 1.6-17 0.2-4.7 0.8-10.1 1.4-12 0.6-1.9 1.6-11.1 2.2-20.5 0.5-9.3 1.5-19.7 2-23 0.5-3.3 1.4-13.1 1.9-21.7 0.6-8.7 1.7-19.1 2.6-23 0.8-4 1.7-12.3 2-18.3 0.2-6 0.8-14.6 1.4-19 0.6-4.4 1.6-8.3 2.3-8.7 0.7-0.4 12.2-0.8 25.7-0.8zm214.9 0h22.3c12.3 0 23.3 0.2 24.6 0.5 1.3 0.3 2.2 1.2 2.2 2.3 0 0.9-4.5 10.2-9.9 20.7-5.4 10.5-11.7 22-14 25.8-2.2 3.7-4.1 7.2-4.1 7.7 0 0.5-1 2.9-2.1 5.3-1.2 2.3-2.7 4.9-3.3 5.7-0.7 0.8-3 5.8-5.2 11-2.1 5.2-5.6 12.4-7.7 16-2.1 3.6-3.7 7.2-3.7 8 0 0.8-1.5 3.9-3.5 6.8-1.9 2.8-3.5 6.1-3.5 7.2 0 1.1-0.7 2.2-1.5 2.5-0.8 0.3-1.5 1.3-1.5 2.3 0 0.9-2.8 7.6-6.3 14.7-3.5 7.2-7.3 13.9-8.4 15-1.2 1.1-3.2 4.9-4.6 8.5-1.3 3.6-5.1 11.9-8.4 18.5-4.5 9.1-6.6 12.2-8.4 12.7-1.3 0.4-9.4 1.1-33.4 2.1l-2.7-7.9c-1.5-4.3-8.8-29.7-16.2-56.4-7.4-26.7-17.1-62.2-21.6-79-4.5-16.8-9.2-34.3-10.5-39-1.3-4.7-2-8.8-1.5-9.3 0.5-0.4 12.7-0.6 53.2-0.2l8 32c4.3 17.6 10.4 43.3 13.4 57 3 13.8 5.7 25.2 5.9 25.5 0.3 0.3 0.7 0.3 1 0 0.3-0.3 0.8-1.8 1-3.5 0.2-1.6 2.9-8.8 5.9-16 2.9-7.1 11-25.1 17.9-40 6.8-14.8 15.6-33.6 19.5-41.7zm-331.4 1.5c7.5 0.3 14.9 1.1 19.5 2.3 4.2 1.1 9.8 2.8 12.5 3.9 2.8 1 6.6 2.8 8.4 3.8 1.9 1.1 5 3.3 6.9 5 2 1.6 5.4 5.4 7.6 8.5 2.2 3 5.7 9.1 7.9 13.5 3.2 6.7 4 9.6 4.9 18.5 0.6 5.7 0.8 16.1 0.5 23-0.3 6.8-1.5 17-2.6 22.5-1.2 5.5-2.7 11.1-3.4 12.5-1.1 2.4-1.6 2.5-13.2 3.1-6.6 0.3-32.3 0.6-57.2 0.7-39.3 0.1-45.3 0.3-45.8 1.7-0.2 0.8-0.5 2.6-0.5 4 0 1.3 0.8 4.6 1.8 7.2 1 2.6 3.2 6.5 4.9 8.8 1.6 2.2 5.2 5.4 7.9 7.2 3.2 2.1 7.2 3.6 11.4 4.4 3.6 0.6 9.2 0.8 12.5 0.5 3.3-0.4 8.3-1.8 11-3.1 2.8-1.4 7.9-5 11.3-8 3.4-3.1 6.5-5.5 6.7-5.5 0.3 0 5.2 1.1 10.8 2.6 5.6 1.4 11.4 2.7 12.7 2.9 1.4 0.1 3.9 0.9 5.5 1.8 1.7 0.9 3.7 1.6 4.5 1.6 0.9 0 2.6 0.9 3.8 2 1.2 1.1 2.3 2.6 2.3 3.3 0 0.7-1.4 3.3-3.2 5.8-1.7 2.4-5.2 6.7-7.8 9.5-2.5 2.7-7.1 7.2-10.2 10-3.2 2.7-9.2 6.8-13.5 9.2-4.3 2.3-11.7 5.5-16.4 7.1-4.6 1.6-13 3.5-18.5 4.2-6.1 0.8-14 1-20.5 0.6-5.7-0.4-14.1-1.6-18.5-2.7-4.4-1.1-10.9-3.4-14.5-5.1-3.5-1.6-9.1-4.9-12.3-7.2-3.2-2.3-6.8-5.7-8-7.6-1.1-2-3.7-5.8-5.8-8.5-2-2.8-5-8-6.6-11.5-1.7-3.6-3.8-8.3-4.7-10.5-1.3-3.3-1.6-7.8-1.6-24.5 0.1-11.3 0.5-23.9 1.1-28 0.5-4.2 2.5-12 4.4-17.5 1.9-5.5 3.7-11.5 4-13.3 0.3-1.8 1.2-3.5 2.1-3.8 0.8-0.4 4.4-5 7.9-10.3 3.5-5.3 9.2-12.6 12.7-16.2 3.5-3.5 9-8.6 12.3-11.1 3.3-2.6 8.7-5.9 12-7.4 3.3-1.5 7.8-3.5 10-4.4 2.2-1 8.1-2.5 13-3.4 5-0.9 11.1-1.8 13.5-2.1 2.5-0.2 9.9-0.2 16.5 0zm-26.2 44.3c-2.3 1.2-6.2 3.9-8.5 6-2.3 2.1-6.2 6.7-8.5 10.3-2.3 3.5-5.1 8.9-6.2 12.1l-2.1 5.8c5.5 2 16.2 2.5 35.5 2.7 16 0.2 30.1 0.1 31.3-0.2 2.1-0.5 2.2-0.9 1.9-9.3-0.2-4.8-0.9-10.5-1.5-12.7-0.6-2.3-2.8-5.8-4.9-7.9-2.1-2.1-5.6-4.9-7.8-6.2-2.2-1.2-6.7-2.8-10-3.4-3.3-0.6-6.2-1-6.5-0.9-0.2 0-2.3 0.4-4.5 0.8-2.2 0.4-5.9 1.7-8.2 2.9zm676.8-25.8h84.9l0.1 44.5-6.8 0.7c-3.7 0.4-21.4 0.7-39.3 0.8-17.8 0-33.9-0.4-35.7-0.8-1.8-0.4-3.4-1.2-3.5-1.7-0.2-0.6-0.1-10.6 0-22.3zm-38.9 99h61.2c47.7 0 61.5 0.2 63 1.2 1.6 1.2 1.8 3.2 2 21.5 0.1 11.1-0.1 20.4-0.4 20.8-0.2 0.3-19.8 0.9-43.5 1.2-23.6 0.3-51.3 0.3-61.5-0.1-10.1-0.4-19.1-1.1-20-1.6-1.2-0.8-1.5-4.1-1.6-18.7-0.1-9.8 0.1-19.3 0.3-21z"/>
			<path id="Path 6" class="s2" d="m1402.4 831c0.2 3 1 7.1 2 9l1.6 3.5c-0.7-7-1.6-11-2.4-13.5l-1.6-4.5z"/>
			<path id="Path 7" fill-rule="evenodd" class="s3" d="m2060 781.3c11.5 0 11.1 0.1-5 0.8-9.6 0.4-18.4 1-19.5 1.3-1.3 0.4-1.6 0.3-1-0.3 0.5-0.6 3.7-1.2 7-1.4 3.3-0.2 11.6-0.3 18.5-0.4zm-547.6 2.8c3.8-0.1 6.7 0.1 6.5 0.3-0.2 0.2-3.6 0.7-7.4 1-3.8 0.3-9.2 1.4-12 2.4-2.7 1-8.4 4.3-12.5 7.3-4.1 3.1-9.2 7.6-14.9 14.4l0.5-6.5c0.3-3.6 0.7-6.7 1-7 0.2-0.3 0.4 1.5 0.3 8.5l5.8-5.6c3.2-3 7.6-6.8 9.8-8.2 2.2-1.5 6.7-3.6 10-4.6 3.5-1.2 8.9-2 12.9-2zm-89.4 1.9l51.5 0.5-25.7 0.2c-23.7 0.3-25.8 0.4-26 2.1 0 0.9-0.2 2.8-0.3 4.2-0.1 1.4-0.5 5.9-0.9 10-0.3 4.1-0.8 9.8-1.1 12.5-0.2 2.8-0.7 8.2-1 12-0.3 3.9-0.7 8.4-1 10-0.2 1.7-0.7 7-1 12-0.4 5-0.8 10.8-1 13-0.2 2.2-0.6 6-0.9 8.5-0.3 2.5-0.8 7.9-1.1 12-0.3 4.1-0.8 10-1.1 13-0.2 3-0.7 6.6-0.9 8-0.2 1.4-0.7 6.3-1.1 11-0.4 4.7-0.8 9.4-0.9 10.5-0.1 1.1-0.5 5.6-0.9 10-0.4 4.4-1 10-1.2 12.5-0.2 2.5-0.6 7-0.9 10-0.3 3-0.7 8-1 11-0.2 3-0.7 5.7-1 6-0.3 0.3-0.5-0.6-0.5-2 0-1.4 1.6-19.6 3.5-40.5 1.9-20.9 4.4-47.2 5.5-58.5 1.1-11.3 3.1-34.7 4.6-52 1.4-17.3 3-32.5 3.5-33.7zm98.8 4.5c0.2 2.7 0.1 11.4-0.2 19.2-0.3 7.8-0.9 14.3-1.3 14.3-0.4 0-0.7-8-0.5-17.8 0.2-9.8 0.6-18.4 1-19.2 0.4-0.9 0.8 0.6 1 3.5zm511.5 6.5c0.1 0 0.1 22.6-0.1 50.2-0.2 27.6-0.6 51.7-1 53.5-0.4 1.9-0.6-20.2-0.4-49 0.2-28.7 0.5-52.8 0.7-53.5 0.3-0.7 0.6-1.2 0.8-1.2zm-451.3 7.2c12.9 0 27.3 0.2 40.5 1.3v31.5l-0.5-31-42.7-0.2c-23.9-0.2-37.9-0.5-31.8-0.8 6.1-0.4 21.6-0.7 34.5-0.8zm637.5 25.7c0.6 0 2.4 1 4 2.2 1.7 1.2 5.2 4.2 7.9 6.8 2.6 2.5 6.1 7 7.6 10.1 1.5 3 3.8 8.4 5 12 1.6 4.6 2.4 9.9 2.8 18.5 0.5 10.4 0.2 12.9-1.7 19.5-1.2 4.1-2.5 7.1-2.9 6.7-0.4-0.4-0.1-2.9 0.6-5.5 0.7-2.6 1-5 0.7-5.2-0.4-0.3-5.9-0.3-12.3 0-6.4 0.2-23.9 0.5-66.2 0.5l-0.1 3c-0.1 2.7-0.2 2.6-1.1-1-0.6-2.4-0.7-11.7-0.4-22.5 0.3-11 1.1-20.4 1.9-23 0.7-2.5 2.5-6.7 4-9.3 2-3.4 3.9-5.3 7-6.7 3.3-1.5 8-2.1 21.7-2.9 9.6-0.6 18.9-0.7 20.5-0.4 2.8 0.5 2.9 0.4 1.5-1.1-0.8-0.9-1-1.7-0.5-1.7zm-133.7 29.6c0.1 6 0.1 16.1 0 22.5-0.2 6.3-0.4 1.3-0.4-11 0-12.4 0.2-17.6 0.4-11.5zm-502.8 44.8c4.7 0 6.5 0.2 4 0.4-2.5 0.2-6.3 0.2-8.5 0-2.2-0.2-0.2-0.4 4.5-0.4zm-86.2 3.6c0.4 0 0.6 6.5 0.5 14.3-0.2 7.8-0.5 15.6-0.6 17.3-0.2 1.6-0.4-4.8-0.5-14.3-0.1-9.5 0.2-17.3 0.6-17.3zm-35.1 40.2c0.3 0.4 0 6.3-0.8 13.2-0.7 6.9-1.7 12.3-2.1 12.1-0.4-0.3-0.6-1.2-0.3-2.2 0.3-1 0.8-4.7 1.1-8.2 0.4-3.6 0.8-7.4 1-8.5 0.1-1.1 0.3-3.2 0.3-4.5 0-1.4 0.4-2.2 0.8-1.9zm607.3 28.2c4.1 0 5.7 0.2 3.5 0.4-2.2 0.2-5.6 0.2-7.5 0-1.9-0.2-0.1-0.4 4-0.4zm-634 1.1c12.4 0 17.3 0.1 11 0.3-6.3 0.2-16.4 0.2-22.5 0-6-0.2-0.9-0.3 11.5-0.3z"/>
		</g>
	</g>
</svg>